Title                            : The Time Traveler's Wife
Year                             : 2009
Genre                            : Drama | Romance | Sci-Fi
iMDB URL                         : http://www.imdb.com/title/tt0452694/

Complete name                    : The.Time.Travelers.Wife.2009.BRRIP.H264-ZEKTORM.mp4
Format                           : MPEG-4
Format profile                   : Base Media
Codec ID                         : isom
File size                        : 1.47 GiB
Duration                         : 1h 47mn
Overall bit rate                 : 1952 Kbps
Subtitles                        : English (Format: srt)

Video
ID                               : 1
Format                           : AVC
Format/Info                      : Advanced Video Codec
Format profile                   : High@L4.0
Format settings, CABAC           : Yes
Format settings, ReFrames        : 3 frames
Codec ID                         : avc1
Codec ID/Info                    : Advanced Video Coding
Duration                         : 1h 47mn
Bit rate mode                    : Variable
Bit rate                         : 1677 Kbps
Maximum bit rate                 : 13.8 Mbps
Width                            : 1280 pixels
Height                           : 528 pixels
Display aspect ratio             : 2.424
Frame rate mode                  : Constant
Frame rate                       : 23.976 fps
Resolution                       : 24 bits
Colorimetry                      : 4:2:0
Scan type                        : Progressive
Bits/(Pixel*Frame)               : 0.103
Stream size                      : 1.26 GiB (86%)
Title                            : Video
Writing library                  : x264

Audio #1
ID                               : 2
Format                           : AAC
Format/Info                      : Advanced Audio Codec
Format version                   : Version 4
Format profile                   : LC
Format settings, SBR             : Yes
Format settings, PS              : No
Codec ID                         : 40
Duration                         : 1h 47mn
Bit rate mode                    : Variable
Bit rate                         : 192 Kbps
Maximum bit rate                 : 252 Kbps
Channel(s)                       : 6 channels
Channel positions                : Front: L C R, Rear: L R, LFE
Sampling rate                    : 48.0 KHz
Resolution                       : 16 bits
Stream size                      : 150 MiB (10%)
Title                            : English
Language                         : English

Audio #2
ID                               : 3
Format                           : AAC
Format/Info                      : Advanced Audio Codec
Format version                   : Version 4
Format profile                   : LC
Format settings, SBR             : Yes
Format settings, PS              : No
Codec ID                         : 40
Duration                         : 1h 47mn
Bit rate mode                    : Variable
Bit rate                         : 77.2 Kbps
Maximum bit rate                 : 101 Kbps
Channel(s)                       : 2 channels
Channel positions                : L R
Sampling rate                    : 48.0 KHz
Resolution                       : 16 bits
Stream size                      : 59.3 MiB (4%)
Title                            : English
Language                         : English
